<svg width="164" height="164" viewBox="0 0 164 164" fill="none" xmlns="http://www.w3.org/2000/svg">
<path d="M0 49.2C0 22.0276 22.0276 0 49.2 0H114.8C141.972 0 164 22.0276 164 49.2V114.8C164 141.972 141.972 164 114.8 164H49.2C22.0276 164 0 141.972 0 114.8V49.2Z" fill="#CFCFCF"/>
<path d="M26 29.6C26 22.0889 32.0889 16 39.6 16H46.4C53.9111 16 60 22.0889 60 29.6V36.4C60 43.9111 53.9111 50 46.4 50H39.6C32.0889 50 26 43.9111 26 36.4V29.6Z" fill="black"/>
<path d="M26 78.6C26 71.0889 32.0889 65 39.6 65H46.4C53.9111 65 60 71.0889 60 78.6V85.4C60 92.9111 53.9111 99 46.4 99H39.6C32.0889 99 26 92.9111 26 85.4V78.6Z" fill="black"/>
<path d="M26 127.6C26 120.089 32.0889 114 39.6 114H46.4C53.9111 114 60 120.089 60 127.6V134.4C60 141.911 53.9111 148 46.4 148H39.6C32.0889 148 26 141.911 26 134.4V127.6Z" fill="black"/>
<path d="M65 29.6C65 22.0889 71.0889 16 78.6 16H85.4C92.9111 16 99 22.0889 99 29.6V36.4C99 43.9111 92.9111 50 85.4 50H78.6C71.0889 50 65 43.9111 65 36.4V29.6Z" fill="black"/>
<path d="M65 78.6C65 71.0889 71.0889 65 78.6 65H85.4C92.9111 65 99 71.0889 99 78.6V85.4C99 92.9111 92.9111 99 85.4 99H78.6C71.0889 99 65 92.9111 65 85.4V78.6Z" fill="black"/>
<path d="M104 29.6C104 22.0889 110.089 16 117.6 16H124.4C131.911 16 138 22.0889 138 29.6V36.4C138 43.9111 131.911 50 124.4 50H117.6C110.089 50 104 43.9111 104 36.4V29.6Z" fill="black"/>
<path d="M104 78.6C104 71.0889 110.089 65 117.6 65H124.4C131.911 65 138 71.0889 138 78.6V85.4C138 92.9111 131.911 99 124.4 99H117.6C110.089 99 104 92.9111 104 85.4V78.6Z" fill="black"/>
</svg>
