<svg width="50" height="50" viewBox="0 0 50 50" fill="none" xmlns="http://www.w3.org/2000/svg">
<path d="M0 15C0 6.71573 6.71573 0 15 0H35C43.2843 0 50 6.71573 50 15V35C50 43.2843 43.2843 50 35 50H15C6.71573 50 0 43.2843 0 35V15Z" fill="#CFCFCF"/>
<path d="M8.99469 24.0212C8.99469 21.8588 10.795 20.1058 13.0159 20.1058H15.0264C17.2473 20.1058 19.0476 21.8588 19.0476 24.0212V25.9788C19.0476 28.1412 17.2473 29.8942 15.0264 29.8942H13.0159C10.795 29.8942 8.99469 28.1412 8.99469 25.9788V24.0212Z" fill="black"/>
<path d="M8.99469 10.8995C8.99469 8.67865 10.795 6.87831 13.0159 6.87831H15.0264C17.2473 6.87831 19.0476 8.67865 19.0476 10.8995V12.9101C19.0476 15.1309 17.2473 16.9312 15.0264 16.9312H13.0159C10.795 16.9312 8.99469 15.1309 8.99469 12.9101V10.8995Z" fill="black"/>
<path d="M30.9524 37.09C30.9524 34.8691 32.7527 33.0688 34.9736 33.0688H36.9841C39.205 33.0688 41.0053 34.8691 41.0053 37.09V39.1005C41.0053 41.3214 39.205 43.1217 36.9841 43.1217H34.9736C32.7527 43.1217 30.9524 41.3214 30.9524 39.1005V37.09Z" fill="black"/>
<path d="M8.99469 37.09C8.99469 34.8691 10.795 33.0688 13.0159 33.0688H15.0264C17.2473 33.0688 19.0476 34.8691 19.0476 37.09V39.1005C19.0476 41.3214 17.2473 43.1217 15.0264 43.1217H13.0159C10.795 43.1217 8.99469 41.3214 8.99469 39.1005V37.09Z" fill="black"/>
<path d="M20.8995 37.791C20.8995 36.2057 22.1846 34.9206 23.7698 34.9206H26.2302C27.8154 34.9206 29.1005 36.2057 29.1005 37.791V40.2513C29.1005 41.8366 27.8154 43.1217 26.2302 43.1217H23.7698C22.1846 43.1217 20.8995 41.8366 20.8995 40.2513V37.791Z" fill="black"/>
<path d="M32.0106 24.7355C32.0106 23.2013 33.2542 21.9577 34.7883 21.9577H37.1693C38.7034 21.9577 39.9471 23.2013 39.9471 24.7354V27.1164C39.9471 28.6505 38.7034 29.8942 37.1693 29.8942H34.7883C33.2542 29.8942 32.0106 28.6505 32.0106 27.1164V24.7355Z" fill="black"/>
</svg>
